<?xml version="1.0" standalone="no"?>
<!DOCTYPE svg PUBLIC "-//W3C//DTD SVG 20010904//EN"
 "http://www.w3.org/TR/2001/REC-SVG-20010904/DTD/svg10.dtd">
<svg version="1.0" xmlns="http://www.w3.org/2000/svg"
 width="419.000000pt" height="419.000000pt" viewBox="0 0 419.000000 419.000000"
 preserveAspectRatio="xMidYMid meet">
<metadata>
Created by potrace 1.14, written by Peter Selinger 2001-2017
</metadata>
<g transform="translate(0.000000,419.000000) scale(0.100000,-0.100000)"
fill="#000000" stroke="none">
<path d="M9 4017 c-1 -7 -2 -783 -2 -1726 l-2 -1714 58 -53 c87 -78 221 -139
372 -169 68 -14 305 -14 365 0 14 3 43 7 65 10 32 4 176 31 280 51 194 39 474
25 630 -31 87 -31 194 -97 268 -165 l57 -52 69 64 c80 74 196 136 326 174 77
23 113 27 250 30 162 3 210 -2 447 -46 59 -11 127 -23 150 -26 24 -3 57 -7 73
-10 17 -3 89 -7 160 -9 119 -3 163 2 275 30 90 22 223 93 288 153 l52 48 0
1726 0 1727 -63 -29 c-142 -64 -323 -98 -513 -94 -87 1 -214 11 -244 19 -8 2
-35 7 -60 10 -25 3 -106 17 -180 30 -175 31 -209 35 -305 39 -309 12 -567
-116 -699 -347 l-28 -49 -36 61 c-39 66 -105 140 -167 188 -86 65 -242 127
-355 140 -103 12 -278 6 -365 -12 -11 -3 -36 -7 -55 -10 -19 -2 -46 -7 -60
-10 -45 -10 -264 -45 -320 -51 -239 -28 -511 8 -682 91 -31 15 -48 19 -49 12z"/>
</g>
</svg>
