<svg width="1462" height="442" viewBox="0 0 1462 442" fill="none" xmlns="http://www.w3.org/2000/svg">
<path d="M673.605 441.083C655.986 441.083 640.992 438.413 628.623 433.074C616.255 427.646 606.822 419.815 600.326 409.582C593.831 399.26 590.583 386.802 590.583 372.209H636.365C636.543 378.527 638.189 383.955 641.304 388.493C644.418 393.031 648.734 396.502 654.251 398.904C659.857 401.307 666.441 402.508 674.005 402.508C680.857 402.508 686.774 401.618 691.757 399.839C696.829 398.059 700.745 395.567 703.503 392.364C706.351 389.071 707.774 385.245 707.774 380.885C707.774 377.148 706.573 373.9 704.171 371.141C701.857 368.294 698.164 365.847 693.092 363.8C688.109 361.664 681.613 359.751 673.605 358.061L653.183 353.923C633.784 349.919 619.147 343.2 609.269 333.768C599.392 324.247 594.454 312.234 594.454 297.73C594.454 285.361 597.701 274.549 604.197 265.295C610.782 256.041 619.947 248.833 631.693 243.672C643.439 238.422 657.098 235.797 672.67 235.797C688.598 235.797 702.302 238.422 713.781 243.672C725.26 248.833 734.158 256.263 740.476 265.962C746.883 275.662 750.309 287.319 750.754 300.933H706.306C705.683 292.658 702.391 286.162 696.429 281.446C690.556 276.729 682.859 274.371 673.338 274.371C667.376 274.371 662.037 275.261 657.321 277.041C652.693 278.821 649.045 281.312 646.376 284.516C643.795 287.63 642.505 291.278 642.505 295.461C642.505 299.109 643.617 302.268 645.842 304.937C648.066 307.518 651.537 309.787 656.253 311.745C660.969 313.702 667.109 315.437 674.672 316.95L692.158 320.42C703.192 322.645 712.669 325.448 720.588 328.829C728.597 332.122 735.137 336.082 740.209 340.709C745.37 345.336 749.152 350.719 751.554 356.859C754.046 362.91 755.292 369.762 755.292 377.415C755.292 390.762 752.044 402.197 745.548 411.718C739.052 421.15 729.709 428.402 717.518 433.474C705.327 438.546 690.69 441.083 673.605 441.083Z" fill="#FF5757"/>
<path d="M781.862 258.488H827.911V437.879H781.862V258.488Z" fill="#FF5757"/>
<path d="M932.698 441.083C918.016 441.083 905.069 438.057 893.857 432.006C882.734 425.955 874.058 417.413 867.829 406.379C861.6 395.345 858.486 382.353 858.486 367.404C858.486 352.544 861.6 339.596 867.829 328.562C874.058 317.528 882.734 308.986 893.857 302.935C905.069 296.795 918.016 293.725 932.698 293.725C947.469 293.725 960.372 296.795 971.406 302.935C982.529 308.986 991.205 317.528 997.434 328.562C1003.66 339.596 1006.78 352.544 1006.78 367.404C1006.78 382.353 1003.66 395.345 997.434 406.379C991.205 417.413 982.529 425.955 971.406 432.006C960.372 438.057 947.469 441.083 932.698 441.083ZM932.698 404.51C938.037 404.51 942.753 403.086 946.846 400.239C951.029 397.302 954.321 393.076 956.724 387.559C959.126 382.042 960.328 375.323 960.328 367.404C960.328 359.484 959.126 352.766 956.724 347.249C954.321 341.732 951.029 337.55 946.846 334.702C942.753 331.766 938.037 330.298 932.698 330.298C927.359 330.298 922.598 331.766 918.416 334.702C914.234 337.55 910.941 341.732 908.539 347.249C906.225 352.766 905.069 359.484 905.069 367.404C905.069 375.323 906.225 382.042 908.539 387.559C910.941 393.076 914.234 397.302 918.416 400.239C922.598 403.086 927.359 404.51 932.698 404.51Z" fill="#FF5757"/>
<path d="M1250.59 441.083C1236.18 441.083 1223.5 437.968 1212.55 431.739C1201.7 425.421 1193.2 416.701 1187.06 405.578C1181.01 394.455 1177.98 381.73 1177.98 367.404C1177.98 353.078 1181.01 340.353 1187.06 329.23C1193.2 318.107 1201.65 309.431 1212.42 303.202C1223.19 296.884 1235.51 293.725 1249.39 293.725C1259.98 293.725 1269.64 295.505 1278.36 299.064C1287.08 302.535 1294.6 307.518 1300.91 314.014C1307.32 320.509 1312.26 328.207 1315.73 337.105C1319.2 345.914 1320.94 355.658 1320.94 366.336V378.749H1192.93V351.253H1299.45L1278.36 356.859C1278.36 350.808 1277.24 345.603 1275.02 341.243C1272.79 336.882 1269.59 333.546 1265.41 331.232C1261.32 328.829 1256.38 327.628 1250.59 327.628C1244.81 327.628 1239.83 328.829 1235.64 331.232C1231.55 333.546 1228.35 336.882 1226.03 341.243C1223.81 345.603 1222.7 350.808 1222.7 356.859V377.148C1222.7 383.376 1223.85 388.849 1226.17 393.565C1228.57 398.192 1231.95 401.752 1236.31 404.243C1240.76 406.735 1246.06 407.981 1252.2 407.981C1256.73 407.981 1260.78 407.358 1264.34 406.112C1267.9 404.866 1270.88 403.086 1273.28 400.773C1275.69 398.459 1277.47 395.79 1278.62 392.764H1319.87C1318.18 402.197 1314.08 410.561 1307.59 417.858C1301.09 425.065 1292.91 430.76 1283.03 434.943C1273.24 439.036 1262.43 441.083 1250.59 441.083Z" fill="#FF5757"/>
<path d="M1395.55 441.349C1382.56 441.349 1371.04 439.392 1360.98 435.477C1350.93 431.561 1342.92 425.955 1336.96 418.659C1331 411.362 1327.57 402.73 1326.68 392.764H1371.93C1372.64 397.925 1374.95 402.063 1378.87 405.178C1382.87 408.203 1388.21 409.716 1394.89 409.716C1401.2 409.716 1406.14 408.603 1409.7 406.379C1413.26 404.154 1415.04 401.262 1415.04 397.703C1415.04 394.588 1413.57 392.097 1410.64 390.228C1407.79 388.271 1403.56 386.802 1397.96 385.824L1372.46 381.285C1358.58 378.794 1347.99 374.033 1340.7 367.003C1333.49 359.974 1329.88 350.897 1329.88 339.774C1329.88 330.52 1332.38 322.467 1337.36 315.615C1342.43 308.764 1349.68 303.469 1359.12 299.732C1368.64 295.905 1379.94 293.992 1393.02 293.992C1406.19 293.992 1417.58 295.994 1427.19 299.999C1436.8 303.914 1444.27 309.52 1449.61 316.817C1455.04 324.024 1457.89 332.656 1458.15 342.711H1415.84C1415.75 337.728 1413.71 333.635 1409.7 330.431C1405.79 327.139 1400.76 325.493 1394.62 325.493C1388.66 325.493 1383.99 326.649 1380.61 328.963C1377.31 331.276 1375.67 334.168 1375.67 337.639C1375.67 340.575 1377 343.022 1379.67 344.98C1382.34 346.938 1386.08 348.361 1390.88 349.251L1419.18 354.457C1433.77 357.126 1444.5 361.575 1451.35 367.804C1458.29 374.033 1461.76 382.398 1461.76 392.898C1461.76 402.508 1458.96 410.961 1453.35 418.258C1447.83 425.555 1440.09 431.25 1430.12 435.343C1420.25 439.347 1408.72 441.349 1395.55 441.349Z" fill="#FF5757"/>
<path d="M1121.64 437.879V296.929H1167.56V437.879H1121.64Z" fill="#FF5757"/>
<path d="M856.875 332.433V296.929H757.836V332.433H856.875Z" fill="#FF5757"/>
<path d="M1017.84 437.879V296.928H1062.28V321.755H1062.68C1065.26 312.768 1069.27 306.316 1074.7 302.401C1080.21 298.397 1087.69 296.395 1097.12 296.395H1109.67V334.168H1091.51C1086.09 334.168 1081.28 335.414 1077.1 337.905C1072.92 340.308 1069.62 343.867 1067.22 348.584C1064.91 353.3 1063.75 358.995 1063.75 365.668V437.879H1017.84Z" fill="#FF5757"/>
<path d="M1121.64 279.88V236.5H1167.56V279.88H1121.64Z" fill="#FF5757"/>
<path d="M598.583 198.879V0H646.634V77.2824H722.315V0H770.366V198.879H722.315V118.126H646.634V198.879H598.583Z" fill="#FF5757"/>
<path d="M844.318 201.949C832.038 201.949 821.316 198.923 812.15 192.872C802.985 186.732 795.866 178.146 790.794 167.112C785.811 155.989 783.32 142.997 783.32 128.137C783.32 113.721 785.9 100.997 791.061 89.9626C796.222 78.9286 803.341 70.3417 812.417 64.2018C821.494 57.9729 831.994 54.8585 843.917 54.8585C850.057 54.8585 855.663 55.6594 860.735 57.2611C865.808 58.8628 870.301 61.2653 874.216 64.4688C878.221 67.5832 881.647 71.543 884.494 76.3481H885.028V57.9285H930.009V198.879H885.028V177.923H884.628C882.136 183.173 878.933 187.578 875.017 191.137C871.102 194.697 866.519 197.366 861.269 199.146C856.108 201.014 850.458 201.949 844.318 201.949ZM857.132 165.243C863.005 165.243 868.121 163.73 872.481 160.705C876.841 157.59 880.223 153.275 882.625 147.758C885.117 142.241 886.363 135.7 886.363 128.137C886.363 120.662 885.117 114.211 882.625 108.783C880.223 103.266 876.841 98.9945 872.481 95.969C868.121 92.9436 863.005 91.4308 857.132 91.4308C851.615 91.4308 846.765 92.8991 842.583 95.8355C838.489 98.772 835.331 102.999 833.106 108.516C830.97 113.944 829.903 120.484 829.903 128.137C829.903 135.878 830.97 142.508 833.106 148.025C835.331 153.542 838.489 157.813 842.583 160.838C846.765 163.775 851.615 165.243 857.132 165.243Z" fill="#FF5757"/>
<path d="M1148.32 57.9285V93.433H1049.28V57.9285H1148.32ZM1073.3 19.4875H1119.35V198.879H1073.3V19.4875Z" fill="#FF5757"/>
<path d="M946.836 198.879V57.9284H991.283V82.7549H991.684C994.264 73.7675 998.268 67.3162 1003.7 63.4009C1009.21 59.3967 1016.69 57.3945 1026.12 57.3945H1038.67V95.1682H1020.51C1015.09 95.1682 1010.28 96.4139 1006.1 98.9055C1001.92 101.308 998.624 104.867 996.222 109.584C993.908 114.3 992.751 119.995 992.751 126.668V198.879H946.836Z" fill="#FF5757"/>
<path fill-rule="evenodd" clip-rule="evenodd" d="M231.791 59.2506C216.609 25.3031 182.953 14.386 156.13 14.386C141.675 14.386 127.397 17.0137 112.666 19.725C96.9681 22.6142 80.7548 25.5982 63.2618 25.5982C38.0546 25.5982 17.6889 21.5168 0 11.748V393.748C15.6889 413.517 46.0546 420.598 63.2618 420.598C80.7548 420.598 96.9681 417.614 112.666 414.725C127.397 412.014 141.675 409.386 156.13 409.386C187.953 409.386 213.609 419.303 231.791 440.251C249.974 419.303 275.63 409.386 307.453 409.386C321.908 409.386 336.185 412.014 350.917 414.725C366.615 417.614 382.828 420.598 400.321 420.598C417.528 420.598 447.894 413.517 463.583 393.748V11.748C445.894 21.5168 425.528 25.5982 400.321 25.5982C382.828 25.5982 366.615 22.6142 350.917 19.725C336.185 17.0138 321.908 14.386 307.453 14.386C280.63 14.386 246.974 25.3031 231.791 59.2506ZM230.882 139.803C217.093 119.61 187.174 98.8086 158.253 98.8086C110.683 98.8086 86.0491 136.185 86.0491 179.507C86.0491 255.787 168.076 325.301 230.882 355.144C293.688 325.301 375.715 255.787 375.715 179.507C375.715 136.185 351.081 98.8086 303.511 98.8086C274.59 98.8086 244.671 119.61 230.882 139.803Z" fill="#FF5757"/>
</svg>
