<svg width="1487" height="465" viewBox="0 0 1487 465" fill="none" xmlns="http://www.w3.org/2000/svg">
<path d="M700.344 464.083C682.725 464.083 667.731 461.413 655.362 456.074C642.994 450.646 633.561 442.815 627.066 432.582C620.57 422.26 617.322 409.802 617.322 395.209H663.104C663.282 401.527 664.928 406.955 668.043 411.493C671.157 416.031 675.473 419.502 680.99 421.904C686.596 424.307 693.181 425.508 700.744 425.508C707.596 425.508 713.513 424.618 718.496 422.839C723.569 421.059 727.484 418.567 730.242 415.364C733.09 412.071 734.514 408.245 734.514 403.885C734.514 400.148 733.312 396.9 730.91 394.141C728.596 391.294 724.903 388.847 719.831 386.8C714.848 384.664 708.352 382.751 700.344 381.061L679.922 376.923C660.524 372.919 645.886 366.2 636.008 356.768C626.131 347.247 621.193 335.234 621.193 320.73C621.193 308.361 624.441 297.549 630.936 288.295C637.521 279.041 646.687 271.833 658.432 266.672C670.178 261.422 683.837 258.797 699.409 258.797C715.338 258.797 729.041 261.422 740.52 266.672C751.999 271.833 760.897 279.263 767.215 288.962C773.622 298.662 777.048 310.319 777.493 323.933H733.045C732.422 315.658 729.13 309.162 723.168 304.446C717.295 299.729 709.598 297.371 700.077 297.371C694.115 297.371 688.776 298.261 684.06 300.041C679.433 301.821 675.784 304.312 673.115 307.516C670.534 310.63 669.244 314.278 669.244 318.461C669.244 322.109 670.356 325.268 672.581 327.937C674.805 330.518 678.276 332.787 682.992 334.745C687.708 336.702 693.848 338.437 701.412 339.95L718.897 343.42C729.931 345.645 739.408 348.448 747.327 351.829C755.336 355.122 761.876 359.082 766.948 363.709C772.109 368.336 775.891 373.719 778.294 379.859C780.785 385.91 782.031 392.762 782.031 400.415C782.031 413.762 778.783 425.197 772.287 434.718C765.791 444.15 756.448 451.402 744.257 456.474C732.066 461.546 717.429 464.083 700.344 464.083Z" fill="#FF5757"/>
<path d="M808.601 281.488H854.65V460.879H808.601V281.488Z" fill="#FF5757"/>
<path d="M959.437 464.083C944.755 464.083 931.808 461.057 920.596 455.006C909.473 448.955 900.797 440.413 894.568 429.379C888.339 418.345 885.225 405.353 885.225 390.404C885.225 375.544 888.339 362.596 894.568 351.562C900.797 340.528 909.473 331.986 920.596 325.935C931.808 319.795 944.755 316.725 959.437 316.725C974.209 316.725 987.111 319.795 998.145 325.935C1009.27 331.986 1017.94 340.528 1024.17 351.562C1030.4 362.596 1033.52 375.544 1033.52 390.404C1033.52 405.353 1030.4 418.345 1024.17 429.379C1017.94 440.413 1009.27 448.955 998.145 455.006C987.111 461.057 974.209 464.083 959.437 464.083ZM959.437 427.51C964.776 427.51 969.492 426.086 973.586 423.239C977.768 420.302 981.06 416.076 983.463 410.559C985.865 405.042 987.067 398.323 987.067 390.404C987.067 382.484 985.865 375.766 983.463 370.249C981.06 364.732 977.768 360.55 973.586 357.702C969.492 354.766 964.776 353.298 959.437 353.298C954.098 353.298 949.338 354.766 945.155 357.702C940.973 360.55 937.681 364.732 935.278 370.249C932.964 375.766 931.808 382.484 931.808 390.404C931.808 398.323 932.964 405.042 935.278 410.559C937.681 416.076 940.973 420.302 945.155 423.239C949.338 426.086 954.098 427.51 959.437 427.51Z" fill="#FF5757"/>
<path d="M1275.33 464.083C1260.92 464.083 1248.24 460.968 1237.29 454.739C1226.44 448.421 1217.94 439.701 1211.8 428.578C1205.75 417.455 1202.72 404.73 1202.72 390.404C1202.72 376.078 1205.75 363.353 1211.8 352.23C1217.94 341.107 1226.39 332.431 1237.16 326.202C1247.93 319.884 1260.25 316.725 1274.13 316.725C1284.72 316.725 1294.38 318.505 1303.1 322.064C1311.82 325.535 1319.33 330.518 1325.65 337.014C1332.06 343.509 1337 351.207 1340.47 360.105C1343.94 368.914 1345.67 378.658 1345.67 389.336V401.749H1217.67V374.253H1324.18L1303.1 379.859C1303.1 373.808 1301.98 368.603 1299.76 364.243C1297.53 359.882 1294.33 356.546 1290.15 354.232C1286.06 351.829 1281.12 350.628 1275.33 350.628C1269.55 350.628 1264.57 351.829 1260.38 354.232C1256.29 356.546 1253.09 359.882 1250.77 364.243C1248.55 368.603 1247.44 373.808 1247.44 379.859V400.148C1247.44 406.376 1248.59 411.849 1250.91 416.565C1253.31 421.192 1256.69 424.752 1261.05 427.243C1265.5 429.735 1270.79 430.981 1276.93 430.981C1281.47 430.981 1285.52 430.358 1289.08 429.112C1292.64 427.866 1295.62 426.086 1298.02 423.773C1300.43 421.459 1302.21 418.79 1303.36 415.764H1344.61C1342.92 425.197 1338.82 433.561 1332.33 440.858C1325.83 448.065 1317.64 453.76 1307.77 457.943C1297.98 462.036 1287.17 464.083 1275.33 464.083Z" fill="#FF5757"/>
<path d="M1420.29 464.349C1407.3 464.349 1395.78 462.392 1385.72 458.477C1375.67 454.561 1367.66 448.955 1361.7 441.659C1355.74 434.362 1352.31 425.73 1351.42 415.764H1396.67C1397.38 420.925 1399.69 425.063 1403.61 428.178C1407.61 431.203 1412.95 432.716 1419.63 432.716C1425.94 432.716 1430.88 431.603 1434.44 429.379C1438 427.154 1439.78 424.262 1439.78 420.703C1439.78 417.588 1438.31 415.097 1435.38 413.228C1432.53 411.271 1428.3 409.802 1422.7 408.824L1397.2 404.285C1383.32 401.794 1372.73 397.033 1365.43 390.003C1358.23 382.974 1354.62 373.897 1354.62 362.774C1354.62 353.52 1357.11 345.467 1362.1 338.615C1367.17 331.764 1374.42 326.469 1383.85 322.732C1393.38 318.905 1404.68 316.992 1417.76 316.992C1430.93 316.992 1442.32 318.994 1451.93 322.999C1461.54 326.914 1469.01 332.52 1474.35 339.817C1479.78 347.024 1482.63 355.656 1482.89 365.711H1440.58C1440.49 360.728 1438.45 356.635 1434.44 353.431C1430.53 350.139 1425.5 348.493 1419.36 348.493C1413.4 348.493 1408.73 349.649 1405.34 351.963C1402.05 354.276 1400.41 357.168 1400.41 360.639C1400.41 363.575 1401.74 366.022 1404.41 367.98C1407.08 369.938 1410.82 371.361 1415.62 372.251L1443.92 377.457C1458.51 380.126 1469.23 384.575 1476.09 390.804C1483.03 397.033 1486.5 405.398 1486.5 415.898C1486.5 425.508 1483.69 433.961 1478.09 441.258C1472.57 448.555 1464.83 454.25 1454.86 458.343C1444.99 462.347 1433.46 464.349 1420.29 464.349Z" fill="#FF5757"/>
<path d="M1146.38 460.879V319.929H1192.29V460.879H1146.38Z" fill="#FF5757"/>
<path d="M883.614 355.433V319.929H784.576V355.433H883.614Z" fill="#FF5757"/>
<path d="M1044.57 460.879V319.928H1089.02V344.755H1089.42C1092 335.768 1096.01 329.316 1101.44 325.401C1106.95 321.397 1114.43 319.395 1123.86 319.395H1134.41V357.168H1118.25C1112.83 357.168 1108.02 358.414 1103.84 360.905C1099.66 363.308 1096.36 366.867 1093.96 371.584C1091.65 376.3 1090.49 381.995 1090.49 388.668V460.879H1044.57Z" fill="#FF5757"/>
<path d="M1146.38 302.88V259.5H1192.29V302.88H1146.38Z" fill="#FF5757"/>
<path d="M625.322 221.879V23H673.373V100.282H749.054V23H797.105V221.879H749.054V141.126H673.373V221.879H625.322Z" fill="#FF5757"/>
<path d="M871.057 224.949C858.777 224.949 848.055 221.923 838.889 215.872C829.724 209.732 822.605 201.146 817.533 190.112C812.55 178.989 810.059 165.997 810.059 151.137C810.059 136.721 812.639 123.997 817.8 112.963C822.961 101.929 830.08 93.3417 839.156 87.2018C848.233 80.9729 858.733 77.8585 870.657 77.8585C876.797 77.8585 882.403 78.6594 887.475 80.2611C892.547 81.8628 897.04 84.2653 900.956 87.4688C904.96 90.5832 908.386 94.543 911.233 99.3481H911.767V80.9285H956.748V221.879H911.767V200.923H911.367C908.875 206.173 905.672 210.578 901.756 214.137C897.841 217.697 893.258 220.366 888.008 222.146C882.847 224.014 877.197 224.949 871.057 224.949ZM883.871 188.243C889.744 188.243 894.86 186.73 899.22 183.705C903.581 180.59 906.962 176.275 909.365 170.758C911.856 165.241 913.102 158.7 913.102 151.137C913.102 143.662 911.856 137.211 909.365 131.783C906.962 126.266 903.581 121.994 899.22 118.969C894.86 115.944 889.744 114.431 883.871 114.431C878.354 114.431 873.504 115.899 869.322 118.836C865.229 121.772 862.07 125.999 859.845 131.516C857.709 136.944 856.642 143.484 856.642 151.137C856.642 158.878 857.709 165.508 859.845 171.025C862.07 176.542 865.229 180.813 869.322 183.838C873.504 186.775 878.354 188.243 883.871 188.243Z" fill="#FF5757"/>
<path d="M1173.06 80.9285V116.433H1074.02V80.9285H1173.06ZM1098.04 42.4875H1144.09V221.879H1098.04V42.4875Z" fill="#FF5757"/>
<path d="M973.575 221.879V80.9284H1018.02V105.755H1018.42C1021 96.7676 1025.01 90.3162 1030.44 86.4009C1035.95 82.3967 1043.43 80.3945 1052.86 80.3945H1063.41V118.168H1047.25C1041.83 118.168 1037.02 119.414 1032.84 121.905C1028.66 124.308 1025.36 127.867 1022.96 132.584C1020.65 137.3 1019.49 142.995 1019.49 149.668V221.879H973.575Z" fill="#FF5757"/>
<path d="M130.794 392.268H142.044C155.951 392.268 162.904 392.268 168.613 394.752C173.648 396.943 177.983 400.477 181.143 404.967C184.727 410.059 186.128 416.869 188.93 430.49L195.207 461H397.838C361.035 434.804 331.709 398.019 314.685 353.951L281.29 267.51C270.724 240.159 242.45 221.556 207.259 209.865C173.579 198.676 143.36 178.319 121.707 146.944C105.64 123.663 94.8568 95.1455 90.3787 61.3258C80.5172 73.3844 72.54 86.7669 66.2641 101.006L10.1625 228.289C2.71517 245.186 -1.00849 253.634 0.236464 260.451C1.32451 266.409 4.76119 271.679 9.77398 275.078C15.5097 278.966 24.7422 278.966 43.2073 278.966H57.342V318.816C57.342 344.527 57.342 357.382 62.3456 367.202C66.747 375.84 73.77 382.863 82.408 387.265C92.2282 392.268 105.084 392.268 130.794 392.268Z" fill="#FFC3C1"/>
<path d="M131.381 25.2849C158.329 8.49072 189.485 0 221.173 0C307.356 0 378.448 55.5116 408.418 135C434.056 203 466.96 265 544.747 265H569.239V461H534.491C455.029 461 383.751 412.458 355.115 338.334L321.721 251.894C304.055 206.166 260.084 181.748 220.928 168.74C194.988 160.123 173.014 144.983 157.38 122.329C141.819 99.7816 131.524 68.3085 131.381 25.2849Z" fill="#FF5757"/>
</svg>
